<?xml version="1.0" encoding="UTF-8"?>
<svg id="Layer_2" data-name="Layer 2" xmlns="http://www.w3.org/2000/svg" viewBox="0 0 339.69 71">
  <defs>
    <style>
      .cls-1 {
        fill: #fff;
      }
    </style>
  </defs>
  <g id="Layer_1-2" data-name="Layer 1">
    <g>
      <path class="cls-1" d="m23.58,51.57c.09-.7-.59-1.26-.97-1.91-1.67-2.84-3.83-5.31-6.18-7.59-2.9-2.81-5.66-5.73-8.28-8.78-3.42-3.98-6.19-8.38-7.46-13.57-.9-3.64-.87-7.3-.12-10.95C1.14,5.97,2.13,3.31,3.32.72c.37-.81.77-.88,1.5-.48,2.99,1.67,5.8,3.56,8.39,5.81,2.77,2.4,5.07,5.16,7.14,8.14.98,1.41,1.81,2.91,2.51,4.47.27.61.6.86,1.28.86,5.38-.02,10.77-.03,16.15,0,.64,0,.98-.23,1.23-.77,1.58-3.46,3.71-6.58,6.26-9.37,3.43-3.76,7.36-6.95,11.99-9.2.7-.34,1-.19,1.32.48,1.65,3.48,2.71,7.1,3.14,10.96.8,7.16-1.61,13.29-5.76,18.88-3.52,4.75-7.78,8.83-11.89,13.05-1.83,1.88-4.7,5.31-5.62,7.91,1.27-.67,2-1.83,3.03-2.64,3.57-2.79,7.03-5.74,10.32-8.87,1.08-1.03,2.16-2.07,3.21-3.13.57-.57.97-.39,1.38.17,2.19,3.03,3.27,6.38,2.99,10.15-.04.59-.4.66-.8.78-3.91,1.23-7.49,3.1-10.73,5.62-2.92,2.27-5.31,4.95-6.96,8.28-1.72,3.46-4.24,6.2-7.66,8.03-3.67,1.97-6.33,1.21-9.56-1.2-2.22-1.66-3.73-3.83-4.91-6.33-2.52-5.35-6.75-9.04-11.88-11.77-1.8-.96-3.61-1.96-5.61-2.44-1.19-.29-1.59-.99-1.46-2.15.32-2.82.83-5.6,2.55-7.92,1.6-2.15.93-2.23,2.93-.34,4.22,4,8.5,7.91,13.12,11.45.97.74,1.82,1.64,2.66,2.4"/>
      <path class="cls-1" d="m99.14,56.43l-11.94-48.08h9.27l4.41,20.4c1.39,6.4,2.72,13.52,3.3,18.54h.14c.58-4.88,2.34-12.07,3.69-18.36l4.26-20.57h9.01l-12.09,48.08h-10.04Zm45.47-26.81v18.8c0,1.81.15,6.35.28,8.01h-7.71c-.15-.73-.36-2.36-.36-3.42-1.4,2.34-3.82,4.06-8.29,4.06-7.07,0-9.79-5.63-9.79-10.9,0-7.53,5.17-12.09,14.5-12.09,1.24,0,2.18,0,3.01.08v-4.02c0-2.14-.27-4.65-3.96-4.65s-3.94,2.32-4.15,4.74h-8.05c.14-5.41,2.68-11.2,12.52-11.2,7.9,0,11.99,3.58,11.99,10.6h0Zm-8.16,10.68c-.86-.14-1.62-.15-2.75-.15-4.83,0-6.59,2.25-6.59,5.25,0,2.24,1.08,4.77,4.22,4.77,4.33,0,5.12-3.24,5.12-8.7v-1.17Zm25.43,16.77c-10.55,0-13.16-8.43-13.16-19.34,0-9.75,3.21-18.77,13.59-18.77,12.07,0,12.45,10.42,12.51,12.64h-8.57c-.07-1.43-.22-5.62-4.01-5.62s-4.96,4.18-4.96,11.8,1.17,12.26,4.86,12.26c3.98,0,4.27-3.98,4.49-6.07h8.19c-.14,2.96-.81,13.1-12.95,13.1Zm40.92-27.45v18.8c0,1.81.15,6.35.28,8.01h-7.71c-.15-.73-.36-2.36-.36-3.42-1.4,2.34-3.82,4.06-8.29,4.06-7.07,0-9.79-5.63-9.79-10.9,0-7.53,5.17-12.09,14.5-12.09,1.24,0,2.18,0,3.01.08v-4.02c0-2.14-.27-4.65-3.96-4.65s-3.94,2.32-4.15,4.74h-8.05c.14-5.41,2.68-11.2,12.52-11.2,7.9,0,11.99,3.58,11.99,10.6h0Zm-8.16,10.68c-.86-.14-1.62-.15-2.75-.15-4.83,0-6.59,2.25-6.59,5.25,0,2.24,1.08,4.77,4.22,4.77,4.33,0,5.12-3.24,5.12-8.7v-1.17Zm13.93-9.21c0-7.56,0-9.51-.07-11.44h8.17c.13.92.27,2.45.27,3.83,1.09-2.03,3.35-4.52,8.12-4.52,6,0,9.42,3.79,9.42,11.24v26.24h-8.5v-24.31c0-3.65-.73-5.88-4.15-5.88-3.22,0-4.76,1.81-4.76,7.4v22.79h-8.5v-25.34Zm27.68-11.44h4.82v-9.19h8.48v9.19h5.68v6.96h-5.68v20.13c0,2.14.39,3.35,3.04,3.35.85,0,1.39,0,2.09-.15v6.24c-1.56.67-3.86.75-5.19.75-5.88,0-8.42-2.17-8.42-8.78v-21.53h-4.82v-6.96Zm21.5-11.3h24.73v7.53h-16.17v12.36h15.22v7.41h-15.22v20.77h-8.56V8.35Zm53.81,29.38c0,13.35-4.9,19.4-13.93,19.4s-13.7-5.78-13.7-19.21,5.48-18.91,14.15-18.91,13.49,6.4,13.49,18.71Zm-19.07.14c0,7.9,1.32,12.17,5.37,12.17,3.82,0,5.12-4.23,5.12-12.06s-1.35-11.81-5.19-11.81-5.31,3.82-5.31,11.7Zm27.9-18.22c2.73,6.19,4.23,9.46,5.1,11.39h.07c1.02-2.48,2.87-6.31,5.14-11.39h8.96l-9.4,17.31,9.41,19.47h-9.42c-2.74-6.47-4.19-9.95-5.02-11.98h-.07c-.81,1.92-2.98,6.85-5.21,11.98h-9.02l9.23-18.29-9.06-18.49h9.29Z"/>
    </g>
  </g>
</svg>