<svg width="33" height="32" viewBox="0 0 33 32" fill="none" xmlns="http://www.w3.org/2000/svg">
<g clip-path="url(#clip0_1_3465)">
<circle cx="16.5" cy="16" r="16" fill="#6419FF"/>
<g clip-path="url(#clip1_1_3465)">
<path d="M15.6666 7.66675C19.8066 7.66675 23.1666 11.0267 23.1666 15.1667C23.1666 19.3067 19.8066 22.6667 15.6666 22.6667C11.5266 22.6667 8.16663 19.3067 8.16663 15.1667C8.16663 11.0267 11.5266 7.66675 15.6666 7.66675ZM15.6666 21.0001C18.8891 21.0001 21.5 18.3892 21.5 15.1667C21.5 11.9434 18.8891 9.33341 15.6666 9.33341C12.4433 9.33341 9.83329 11.9434 9.83329 15.1667C9.83329 18.3892 12.4433 21.0001 15.6666 21.0001ZM22.7375 21.0592L25.095 23.4159L23.9158 24.5951L21.5591 22.2376L22.7375 21.0592Z" fill="white"/>
</g>
</g>
<defs>
<clipPath id="clip0_1_3465">
<rect width="32" height="32" fill="white" transform="translate(0.5)"/>
</clipPath>
<clipPath id="clip1_1_3465">
<rect width="20" height="20" fill="white" transform="translate(6.5 6)"/>
</clipPath>
</defs>
</svg>
