<svg width="580" height="426" viewBox="0 0 580 426" fill="none" xmlns="http://www.w3.org/2000/svg">
<g clip-path="url(#clip0_105_2390)">
<path d="M565.547 185.659C565.709 183.182 559.899 181.973 560.163 179.805C560.426 177.645 566.286 178.094 572.482 174.193C573.599 173.489 580.64 169.056 579.953 165.729C578.652 159.424 550.734 162.642 548.017 153.469C547.421 151.456 547.975 148.633 546.331 142.306C545.677 139.789 545.133 138.483 544.024 138.07C542.45 137.485 541.112 139.211 537.248 141.761C531.454 145.586 530.395 144.39 526.238 147.76C523.152 150.261 522.114 152.234 520.77 151.836C518.869 151.274 519.718 146.96 517.541 145.907C515.32 144.832 511.445 147.879 509.072 150.521C504.617 155.478 504.155 160.447 502.674 164.99C501.065 169.927 497.499 176.668 488.654 183.611L407.911 242.395C424.909 230.627 472.441 199.01 490.961 187.847C496.307 184.624 501.922 181.487 508.051 182.93C513.953 184.319 519.621 189.786 529.135 193.413C530.246 193.836 533.355 194.976 534.754 193.647C535.911 192.548 534.846 190.763 535.911 189.721C537.339 188.324 540.415 190.401 545.455 191.113C549.009 191.615 551.733 191.182 554.076 190.81C554.782 190.698 565.332 188.957 565.547 185.659L565.547 185.659Z" fill="#F2F2F2"/>
<path d="M429.12 152.269C427.951 151.475 425.682 153.978 424.694 153.223C423.71 152.471 425.621 149.723 425.494 145.557C425.471 144.805 425.327 140.07 423.497 139.447C420.027 138.266 413.551 152.899 408.266 151.586C407.106 151.298 405.88 150.212 402.301 149.193C400.877 148.788 400.079 148.678 399.557 149.103C398.816 149.707 399.277 150.862 399.413 153.495C399.618 157.442 398.726 157.617 399.18 160.63C399.517 162.867 400.186 163.945 399.603 164.49C398.778 165.261 396.906 163.6 395.761 164.364C394.593 165.145 394.97 167.926 395.582 169.853C396.729 173.471 399.034 175.131 400.836 177.168C402.795 179.383 405.074 183.079 405.929 189.424L411.479 246.02C410.608 234.281 408.808 201.825 408.673 189.513C408.634 185.959 408.715 182.298 411.192 179.705C413.576 177.209 417.894 176.004 422.419 172.38C422.948 171.957 424.404 170.76 424.155 169.69C423.95 168.805 422.767 168.812 422.563 167.989C422.289 166.885 424.196 165.974 425.999 163.706C427.271 162.106 427.845 160.644 428.338 159.386C428.487 159.007 430.676 153.326 429.12 152.269L429.12 152.269V152.269Z" fill="#F2F2F2"/>
<path d="M448.802 173.422L452.394 166.67L453.041 166.415C456.031 165.234 458.258 163.605 459.663 161.574C459.886 161.251 460.093 160.916 460.304 160.576C461.139 159.226 462.177 157.548 464.323 156.234C465.522 155.502 468.532 153.97 470.332 155.648C470.821 156.094 471.059 156.622 471.171 157.126C471.266 157.084 471.363 157.043 471.466 156.999C472.745 156.473 473.52 156.404 474.266 156.337C474.84 156.285 475.432 156.232 476.531 155.9C477.013 155.754 477.411 155.608 477.746 155.486C478.761 155.118 480.03 154.72 481.215 155.554C482.452 156.49 482.397 158.005 482.362 159.008C482.299 160.798 482.042 161.943 481.871 162.703C481.808 162.98 481.738 163.292 481.737 163.402C481.734 164.29 485.468 166.017 486.87 166.674C490.026 168.142 492.757 169.412 492.543 171.89C492.392 173.664 490.697 174.985 487.366 175.92C486.329 176.21 485.367 176.312 484.551 176.349C484.815 176.921 484.934 177.604 484.657 178.357C483.997 180.138 481.648 180.766 477.671 180.231C476.682 180.1 475.354 179.92 473.805 179.21C473.076 178.875 472.47 178.5 471.957 178.171C471.747 178.455 471.463 178.723 471.064 178.926C469.892 179.524 468.5 179.238 466.946 178.013C465.218 176.691 463.976 175.338 462.88 174.146C461.921 173.107 461.093 172.215 460.289 171.74C458.784 170.878 456.903 171.267 454.6 171.864L448.802 173.422L448.802 173.422Z" fill="#F2F2F2"/>
<path d="M477.629 138.317L470.188 136.554L469.777 135.994C467.876 133.4 465.736 131.659 463.415 130.815C463.046 130.681 462.67 130.566 462.287 130.448C460.77 129.982 458.884 129.404 457.068 127.661C456.057 126.687 453.812 124.163 454.978 121.996C455.285 121.41 455.736 121.045 456.194 120.81C456.13 120.729 456.066 120.645 455.997 120.556C455.164 119.453 454.9 118.721 454.646 118.015C454.45 117.474 454.249 116.914 453.649 115.935C453.386 115.505 453.144 115.158 452.941 114.865C452.328 113.976 451.62 112.849 452.127 111.491C452.718 110.058 454.197 109.726 455.177 109.506C456.924 109.112 458.096 109.071 458.874 109.043C459.158 109.034 459.478 109.022 459.585 108.996C460.444 108.774 461.166 104.723 461.447 103.199C462.066 99.7741 462.602 96.8101 465.053 96.3883C466.806 96.085 468.514 97.3891 470.263 100.375C470.807 101.304 471.15 102.209 471.392 102.99C471.879 102.589 472.508 102.3 473.307 102.378C475.197 102.564 476.401 104.677 476.892 108.66C477.016 109.65 477.179 110.982 476.885 112.66C476.746 113.45 476.537 114.132 476.349 114.712C476.676 114.843 477.008 115.049 477.305 115.384C478.181 116.366 478.257 117.785 477.467 119.599C476.627 121.607 475.633 123.151 474.759 124.514C473.997 125.705 473.344 126.732 473.089 127.631C472.637 129.305 473.49 131.026 474.652 133.103L477.629 138.317L477.629 138.317V138.317Z" fill="#F2F2F2"/>
<path d="M487.022 117.61L490.614 110.858L491.261 110.602C494.251 109.421 496.478 107.793 497.883 105.761C498.106 105.438 498.313 105.104 498.524 104.763C499.359 103.414 500.397 101.736 502.543 100.421C503.742 99.6899 506.752 98.1578 508.552 99.8356C509.041 100.281 509.279 100.81 509.391 101.313C509.486 101.271 509.583 101.231 509.686 101.186C510.965 100.661 511.74 100.591 512.486 100.524C513.06 100.472 513.652 100.42 514.751 100.087C515.233 99.9416 515.631 99.796 515.966 99.6739C516.981 99.3059 518.25 98.9075 519.436 99.7418C520.672 100.678 520.617 102.193 520.582 103.196C520.519 104.986 520.262 106.131 520.091 106.89C520.028 107.167 519.959 107.48 519.957 107.59C519.954 108.478 523.688 110.204 525.09 110.862C528.246 112.33 530.977 113.6 530.763 116.078C530.612 117.851 528.917 119.173 525.586 120.107C524.549 120.398 523.588 120.5 522.771 120.536C523.035 121.109 523.154 121.791 522.877 122.544C522.217 124.326 519.868 124.954 515.891 124.418C514.902 124.288 513.574 124.107 512.025 123.398C511.296 123.063 510.69 122.688 510.177 122.359C509.967 122.642 509.683 122.91 509.284 123.113C508.112 123.711 506.72 123.425 505.166 122.2C503.438 120.879 502.196 119.525 501.1 118.334C500.141 117.295 499.313 116.403 498.509 115.928C497.004 115.066 495.123 115.455 492.82 116.052L487.022 117.61V117.61H487.022Z" fill="#F2F2F2"/>
<path d="M410.08 243.731L409.33 242.007L410.051 240.272L409.33 242.007L407.678 241.133C407.751 240.974 407.892 240.59 408.117 239.993C409.351 236.719 413.104 226.754 420.563 212.121C425.77 201.907 431.685 191.791 438.147 182.049C444.619 172.292 450.084 165.292 454.475 159.666C457.788 155.423 461.015 151.432 464.161 147.546C472.562 137.162 480.496 127.352 487.747 115.442C489.367 112.784 492.736 107.249 493.508 99.4325C493.955 94.8988 493.467 90.267 492.052 85.6683L495.647 84.563C497.205 89.6429 497.743 94.7712 497.247 99.8051C496.391 108.472 492.72 114.502 490.956 117.4C483.576 129.52 475.565 139.424 467.082 149.908C463.95 153.781 460.736 157.753 457.437 161.979C453.086 167.553 447.669 174.492 441.28 184.124C434.894 193.749 429.052 203.741 423.909 213.826C416.546 228.275 412.85 238.092 411.635 241.317C410.986 243.039 410.85 243.399 410.08 243.731V243.731V243.731Z" fill="#F2F2F2"/>
<path d="M482.993 86.7002C482.866 86.6131 482.739 86.5219 482.615 86.4236C480.073 84.4729 478.71 81.2176 478.564 76.7488C478.498 74.6489 479.067 72.6943 480.202 68.7964C480.376 68.1949 481.293 65.1666 483.16 61.4143C484.379 58.9619 485.059 58.0532 486.069 57.5304C487.191 56.9469 488.427 56.8504 489.62 57.0313C489.784 56.7076 490.025 56.4235 490.367 56.1998C491.781 55.2687 493.07 56.4006 493.774 57.0029C494.125 57.3147 494.561 57.707 495.098 58.0344C495.939 58.5529 496.542 58.6103 497.454 58.7011C498.327 58.7874 499.412 58.8946 500.746 59.457C503.383 60.5559 504.868 62.5341 505.358 63.1856C507.946 66.5998 507.814 70.3392 507.66 74.6689C507.626 75.5358 507.426 78.6371 506.221 82.2512C505.352 84.8586 504.6 85.7674 503.919 86.3595C502.524 87.5789 501.043 87.8097 497.474 88.1142C493.743 88.4371 491.873 88.5969 490.435 88.4883C487.091 88.2306 484.991 88.0689 482.993 86.7001L482.993 86.7002V86.7002Z" fill="#F2F2F2"/>
<path d="M468.179 0H257.53C249.803 0 243.519 6.2845 243.519 14.013V231.326C243.519 239.055 249.803 245.339 257.53 245.339H468.179C475.907 245.339 482.19 239.055 482.19 231.326V14.013C482.19 6.2845 475.907 0 468.179 0ZM480.717 231.326C480.717 238.252 475.104 243.866 468.179 243.866H257.53C250.606 243.866 244.993 238.252 244.993 231.326V14.013C244.993 7.08765 250.606 1.47351 257.53 1.47351H369.11C430.749 1.47351 480.717 51.4493 480.717 113.098V231.326Z" fill="#3F3D56"/>
<path d="M239.061 163.327C231.678 165.323 226.723 170.751 227.994 175.451C229.265 180.15 236.279 182.34 243.665 180.342C246.626 179.585 249.362 178.129 251.646 176.097L282.821 167.245L278.356 152.701L248.097 162.972C245.1 162.367 242.001 162.489 239.061 163.327Z" fill="#FFB6B6"/>
<path d="M369.706 119.694C369.706 119.694 378.508 132.608 358.671 142.35C338.834 152.092 302.165 165.996 302.165 165.996L251.536 177.727L243.89 160.962L303.967 144.591L352.922 117.267L369.706 119.694H369.706Z" fill="#3F3D56"/>
<path d="M363.817 85.3215C363.591 91.4429 367.998 98.7094 372.656 98.8586C378.26 99.0382 404.754 100.925 405.606 98.7276C411.519 83.4686 383.67 51.8155 377.392 50.9024C374.019 50.4117 369.979 55.256 368.426 59.2552C366.25 64.8594 369.462 67.5023 367.649 75.0523C366.267 80.8096 363.974 81.0421 363.817 85.3215Z" fill="#2F2E41"/>
<path d="M317.7 326.633L299.106 330.895L317.79 386.343L330.39 383.456L317.7 326.633Z" fill="#FFB6B6"/>
<path d="M311.056 369.051L318.247 370.106L319.356 373.959C319.356 373.959 319.596 369.058 327.539 365.699L329.603 369.148C329.603 369.148 333.855 371.885 335.229 378.667L338.281 397.013L332.036 398.67L327.454 386.617C327.454 386.617 324.933 384.312 320.923 399.905C320.923 399.905 319.299 405.145 304.567 404.538C302.542 404.455 300.76 403.103 300.22 401.15C299.922 400.072 300.054 398.957 301.297 398.211C304.462 396.309 308.143 396.488 309.563 393.109C310.983 389.73 311.056 369.051 311.056 369.051Z" fill="#2F2E41"/>
<path d="M358.097 351.842L341.492 351.432L343.817 409.819L356.741 410.05L358.097 351.842Z" fill="#FFB6B6"/>
<path d="M341.441 391.415L348.168 394.17L348.317 398.176C348.317 398.176 349.729 393.477 358.246 392.129L359.421 395.973C359.421 395.973 362.889 399.652 362.591 406.566L361.138 425.108L354.679 425.213L353.132 412.411C353.132 412.411 351.239 409.567 343.595 423.737C343.595 423.737 340.758 428.432 326.605 424.297C324.659 423.729 323.255 421.988 323.201 419.962C323.171 418.844 323.567 417.794 324.953 417.368C328.483 416.285 332.013 417.344 334.204 414.406C336.396 411.468 341.441 391.415 341.441 391.415Z" fill="#2F2E41"/>
<path d="M392.361 288.068L304.543 281.272L329.256 179.945L388.383 171.425L392.361 288.068Z" fill="#2F2E41"/>
<path d="M380.249 101.814L398.752 91.9551L413.694 109.6L383.669 205.849L328.746 181.526L370.462 110.197L380.249 101.814Z" fill="#6014FF"/>
<path d="M382.595 188.471C382.595 188.471 388.487 218.857 370.241 234.651L364.656 252.41L358.626 285.189L359.172 369.851L337.072 367.641L328.233 286.6L328.128 246.267L295.503 274.21L329.647 341.283L301.825 353.468L267.845 272.639C265.484 267.716 266.113 261.88 269.47 257.573L328.746 181.526L382.595 188.471Z" fill="#2F2E41"/>
<path d="M405.503 99.9265L369.225 133.777C360.639 203.459 365.326 267.444 390.029 322.837L450.991 294.577C400.723 279.329 405.653 195.599 415.406 105.885L405.503 99.9265Z" fill="#3F3D56"/>
<path d="M374.216 110.308L379.797 101.672L348.931 119.822L324.523 187.472L369.548 131.275L374.216 110.308Z" fill="#3F3D56"/>
<path d="M451.428 237.556C453.555 244.904 459.07 249.762 463.745 248.407C468.42 247.052 470.484 239.998 468.355 232.648C467.545 229.701 466.04 226.99 463.968 224.743L454.561 193.726L440.102 198.451L450.911 228.527C450.36 231.535 450.537 234.631 451.428 237.556Z" fill="#FFB6B6"/>
<path d="M404.094 106.608C404.094 106.608 416.747 97.4368 427.053 116.989C437.36 136.541 452.309 172.8 452.309 172.8L465.489 223.08L448.953 231.205L430.865 171.614L402.15 123.457L404.094 106.608Z" fill="#3F3D56"/>
<path d="M389.047 91.1617C400.396 91.1617 409.596 81.9601 409.596 70.6094C409.596 59.2587 400.396 50.0571 389.047 50.0571C377.698 50.0571 368.498 59.2587 368.498 70.6094C368.498 81.9601 377.698 91.1617 389.047 91.1617Z" fill="#FFB6B6"/>
<path d="M389.115 62.591C387.958 62.4769 387.364 63.7002 382.946 65.4069C381.381 66.0116 380.58 66.3151 379.661 66.3741C376.867 66.5537 374.695 65.0101 373.244 63.9786C370.885 62.3018 369.365 61.2216 369.068 59.4948C368.681 57.2414 371.231 54.7241 376.348 49.7815C378.854 47.361 380.381 45.8989 382.833 44.1588C386.946 41.24 389.003 39.7806 391.885 39.4943C395.703 39.115 398.606 40.9373 402.795 43.5667C403.926 44.2771 405.558 44.6187 407.287 44.7489C412.949 45.1751 417.803 48.9494 419.343 54.4154C419.46 54.833 419.559 55.2109 419.633 55.5346C422.673 68.8064 421.825 82.6103 417.665 95.5746C417.553 95.9236 417.46 96.2485 417.387 96.5446C415.455 104.44 388.912 107.518 385.807 100.843C383.852 96.64 392.988 92.4346 394.353 79.9023C395.303 71.1777 392 62.8755 389.115 62.591V62.591Z" fill="#2F2E41"/>
<path d="M309.08 67.2312H86.4298V68.3727H309.08V67.2312Z" fill="#E6E6E6"/>
<path d="M277.648 50.5417H117.862C115.345 50.5417 113.297 48.4933 113.297 45.9757C113.297 43.458 115.345 41.4097 117.862 41.4097H277.648C280.165 41.4097 282.213 43.458 282.213 45.9757C282.213 48.4933 280.165 50.5417 277.648 50.5417Z" fill="#E6E6E6"/>
<path d="M86.9233 76.3153C92.2121 76.3153 96.4996 72.0272 96.4996 66.7375C96.4996 61.4478 92.2121 57.1597 86.9233 57.1597C81.6344 57.1597 77.347 61.4478 77.347 66.7375C77.347 72.0272 81.6344 76.3153 86.9233 76.3153Z" fill="#E6E6E6"/>
<path d="M116.389 55.6861C121.678 55.6861 125.965 51.398 125.965 46.1083C125.965 40.8187 121.678 36.5305 116.389 36.5305C111.1 36.5305 106.812 40.8187 106.812 46.1083C106.812 51.398 111.1 55.6861 116.389 55.6861Z" fill="#E6E6E6"/>
<path d="M233.943 174.061H11.2927V175.202H233.943V174.061Z" fill="#3F3D56"/>
<path d="M202.51 157.371H42.7254C40.2081 157.371 38.1601 155.323 38.1601 152.805C38.1601 150.287 40.2081 148.239 42.7254 148.239H202.51C205.028 148.239 207.076 150.287 207.076 152.805C207.076 155.323 205.028 157.371 202.51 157.371Z" fill="#6014FF"/>
<path d="M9.5763 183.145C14.8651 183.145 19.1526 178.857 19.1526 173.567C19.1526 168.277 14.8651 163.989 9.5763 163.989C4.28745 163.989 0 168.277 0 173.567C0 178.857 4.28745 183.145 9.5763 183.145Z" fill="#6014FF"/>
<path d="M39.0418 162.515C44.3307 162.515 48.6181 158.227 48.6181 152.938C48.6181 147.648 44.3307 143.36 39.0418 143.36C33.753 143.36 29.4655 147.648 29.4655 152.938C29.4655 158.227 33.753 162.515 39.0418 162.515Z" fill="#6014FF"/>
<path d="M260.462 291.941H37.8117V293.083H260.462V291.941Z" fill="#E6E6E6"/>
<path d="M229.029 275.252H69.2444C66.7271 275.252 64.6791 273.203 64.6791 270.686C64.6791 268.168 66.7271 266.12 69.2444 266.12H229.029C231.547 266.12 233.595 268.168 233.595 270.686C233.595 273.203 231.547 275.252 229.029 275.252Z" fill="#E6E6E6"/>
<path d="M64.8242 279.66C70.113 279.66 74.4005 275.371 74.4005 270.082C74.4005 264.792 70.113 260.504 64.8242 260.504C59.5353 260.504 55.2479 264.792 55.2479 270.082C55.2479 275.371 59.5353 279.66 64.8242 279.66Z" fill="#E6E6E6"/>
<path d="M36.0953 301.762C41.3841 301.762 45.6716 297.474 45.6716 292.184C45.6716 286.895 41.3841 282.607 36.0953 282.607C30.8064 282.607 26.519 286.895 26.519 292.184C26.519 297.474 30.8064 301.762 36.0953 301.762Z" fill="#E6E6E6"/>
</g>
<defs>
<clipPath id="clip0_105_2390">
<rect width="580" height="426" fill="white"/>
</clipPath>
</defs>
</svg>
